<svg xmlns="http://www.w3.org/2000/svg" width="800" height="800"><svg xmlns="http://www.w3.org/2000/svg" width="800" height="800"><path d="M707.16 373.913C693.871 216.093 561.197 91.727 400 91.727S106.129 216.094 92.842 373.913H0v52.174h92.842C106.129 583.907 238.803 708.273 400 708.273s293.871-124.367 307.16-282.186H800v-52.174zM400 656.099C258.786 656.1 143.9 541.214 143.9 400S258.787 143.9 400 143.9 656.1 258.787 656.1 400 541.215 656.1 400 656.1" style="stroke-width:1.73913"/><path d="M329.2 551.68q-9.814 0-16.214-5.973-6.4-6.4-6.4-16.64v-254.72q0-10.667 7.68-18.347 8.107-7.68 19.2-7.68h76.374q43.947 0 68.267 23.893 24.746 23.894 24.746 64 0 31.147-16.213 52.054-15.787 20.48-44.8 29.013L502 516.693q3.413 5.547 3.413 12.374 0 9.386-6.4 16.213-6.4 6.4-15.786 6.4-11.947 0-18.774-9.387L391.493 422.4h-40.107v106.667q0 10.24-6.4 16.64-5.973 5.973-15.786 5.973m80.64-170.667q23.04 0 35.413-11.946 12.374-11.947 12.374-32.854 0-21.76-12.8-33.706-12.374-12.374-34.987-12.374h-58.454v90.88z" aria-label="R" style="font-weight:700;font-size:426.667px;font-family:&quot;UKSH Netto&quot;;-inkscape-font-specification:&quot;UKSH Netto Bold&quot;;text-align:end;text-anchor:end;stroke-width:4.032;stroke-linecap:round;stroke-linejoin:round;paint-order:fill markers stroke"/></svg><style>@media (prefers-color-scheme:light){:root{filter:none}}@media (prefers-color-scheme:dark){:root{filter:invert(100%)}}</style></svg>