<svg xmlns="http://www.w3.org/2000/svg" xml:space="preserve" width="250" height="75" viewBox="104.8 49.784 250 75"><path d="M381.96 77.97C368.671-79.85 235.997-204.216 74.8-204.216S-219.071-79.849-232.358 77.97H-325.2v52.174h92.842C-219.071 287.964-86.397 412.33 74.8 412.33s293.871-124.367 307.16-282.186h92.84V77.97ZM74.8 360.156c-141.214.001-256.1-114.885-256.1-256.099s114.887-256.1 256.1-256.1 256.1 114.887 256.1 256.1-114.885 256.1-256.1 256.1" style="stroke-width:1.73913" transform="translate(138.653 79.957)scale(.0899)"/><path d="M4 255.737q-9.814 0-16.214-5.973-6.4-6.4-6.4-16.64v-254.72q0-10.667 7.68-18.347 8.107-7.68 19.2-7.68H84.64q43.947 0 68.267 23.893 24.746 23.894 24.746 64 0 31.147-16.213 52.054-15.787 20.48-44.8 29.013l60.16 99.413q3.413 5.547 3.413 12.374 0 9.386-6.4 16.213-6.4 6.4-15.786 6.4-11.947 0-18.774-9.387l-72.96-119.893H26.186v106.667q0 10.24-6.4 16.64-5.973 5.973-15.786 5.973M84.64 85.07q23.04 0 35.413-11.946 12.374-11.947 12.374-32.854 0-21.76-12.8-33.706Q107.253-5.81 84.64-5.81H26.186v90.88z" aria-label="R" style="font-weight:700;font-size:426.667px;font-family:&quot;UKSH Netto&quot;;-inkscape-font-specification:&quot;UKSH Netto Bold&quot;;text-align:end;text-anchor:end;stroke-width:4.032;stroke-linecap:round;stroke-linejoin:round;paint-order:fill markers stroke" transform="translate(138.653 79.957)scale(.0899)"/><text x="183.576" y="86.112" font-family="Tahoma, Verdana, sans-serif" font-size="24" style="white-space:pre">RotoDrive</text><text x="340.595" y="105.264" fill="#7f7f7f" font-family="Tahoma, Verdana, sans-serif" font-size="18" style="white-space:pre"><tspan text-anchor="end">Web Logging</tspan></text></svg>